<svg xmlns="http://www.w3.org/2000/svg" version="1.1" xmlns:xlink="http://www.w3.org/1999/xlink" xmlns:svgjs="http://svgjs.dev/svgjs" width="2000" height="383" viewBox="0 0 2000 383"><g transform="matrix(1,0,0,1,-1.2121212121212466,-2.419716714851006)"><svg viewBox="0 0 396 76" data-background-color="#000000" preserveAspectRatio="xMidYMid meet" height="383" width="2000" xmlns="http://www.w3.org/2000/svg" xmlns:xlink="http://www.w3.org/1999/xlink"><g id="tight-bounds" transform="matrix(1,0,0,1,0.2400000000000091,0.48015266404354406)"><svg viewBox="0 0 395.52 75.03969467191294" height="75.03969467191294" width="395.52"><g><svg viewBox="0 0 505.999223806582 96.00027118393723" height="75.03969467191294" width="395.52"><g transform="matrix(1,0,0,1,110.47922380658204,13.267765409646898)"><svg viewBox="0 0 395.52 69.46474036464343" height="69.46474036464343" width="395.52"><g id="textblocktransform"><svg viewBox="0 0 395.52 69.46474036464343" height="69.46474036464343" width="395.52" id="textblock"><g><svg viewBox="0 0 395.52 69.46474036464343" height="69.46474036464343" width="395.52"><g transform="matrix(1,0,0,1,0,0)"><svg width="395.52" viewBox="4.85 -37.6 217.13 38.050000000000004" height="69.46474036464343" data-palette-color="url(#36110a6f-f1ae-4183-826c-7c13f2b3690c)"><g class="wordmark-text-0" data-fill-palette-color="primary" id="text-0"></g></svg></g></svg></g></svg></g></svg></g><g><svg viewBox="0 0 94.08026576025848 96.00027118393723" height="96.00027118393723" width="94.08026576025848"><g><svg xmlns="http://www.w3.org/2000/svg" xmlns:xlink="http://www.w3.org/1999/xlink" version="1.1" x="0" y="0" viewBox="0 0 98 100" enable-background="new 0 0 100 100" xml:space="preserve" height="96.00027118393723" width="94.08026576025848" class="icon-icon-0" data-fill-palette-color="accent" id="icon-0"></svg></g></svg></g></svg></g><defs></defs><mask id="9b91c8bc-087d-4a74-853c-7c4cda14f689"><g id="SvgjsG6638"><svg viewBox="0 0 395.52 75.03969467191294" height="75.03969467191294" width="395.52"><g><svg viewBox="0 0 505.999223806582 96.00027118393723" height="75.03969467191294" width="395.52"><g transform="matrix(1,0,0,1,110.47922380658204,13.267765409646898)"><svg viewBox="0 0 395.52 69.46474036464343" height="69.46474036464343" width="395.52"><g id="SvgjsG6637"><svg viewBox="0 0 395.52 69.46474036464343" height="69.46474036464343" width="395.52" id="SvgjsSvg6636"><g><svg viewBox="0 0 395.52 69.46474036464343" height="69.46474036464343" width="395.52"><g transform="matrix(1,0,0,1,0,0)"><svg width="395.52" viewBox="4.85 -37.6 217.13 38.050000000000004" height="69.46474036464343" data-palette-color="url(#36110a6f-f1ae-4183-826c-7c13f2b3690c)"><g class="wordmark-text-0" data-fill-palette-color="primary" id="SvgjsG6635"><path d="M23.05 0L6.4 0Q4.85 0 4.85-1.5L4.85-1.5 4.85-34Q4.85-34.55 5.33-34.83 5.8-35.1 6.9-35.1L6.9-35.1 7.3-35.1Q8.45-35.1 8.9-34.83 9.35-34.55 9.35-34L9.35-34 9.35-3.8 23.05-3.8Q24.05-3.8 24.05-2.3L24.05-2.3 24.05-1.5Q24.05 0 23.05 0L23.05 0ZM31.05 0.1L30.65 0.1Q29.55 0.1 29.12-0.2 28.7-0.5 28.7-1L28.7-1 28.7-25.15Q28.7-25.7 29.12-25.98 29.55-26.25 30.65-26.25L30.65-26.25 31.05-26.25Q32.15-26.25 32.57-25.98 33-25.7 33-25.15L33-25.15 33-1Q33-0.5 32.57-0.2 32.15 0.1 31.05 0.1L31.05 0.1ZM30.85-29.75L30.85-29.75Q29.65-29.75 29.15-30.05 28.65-30.35 28.65-30.85L28.65-30.85 28.65-33.85Q28.65-34.35 29.15-34.65 29.65-34.95 30.85-34.95L30.85-34.95Q32.05-34.95 32.55-34.68 33.05-34.4 33.05-33.85L33.05-33.85 33.05-30.85Q33.05-30.35 32.55-30.05 32.05-29.75 30.85-29.75ZM50.45 0.1L48.7 0.1Q47.95 0.1 47.35-0.1 46.75-0.3 46.5-0.95L46.5-0.95 38.65-24.75Q38.6-24.85 38.55-25.05 38.5-25.25 38.5-25.4L38.5-25.4Q38.5-25.8 39.02-26.03 39.55-26.25 40.65-26.25L40.65-26.25 41.1-26.25Q41.85-26.25 42.4-26.08 42.95-25.9 43.1-25.45L43.1-25.45 49.65-3.25 49.85-3.25 56.4-25.45Q56.55-25.9 57.1-26.08 57.65-26.25 58.45-26.25L58.45-26.25 58.8-26.25Q59.8-26.25 60.22-26.03 60.65-25.8 60.65-25.4L60.65-25.4Q60.65-25.25 60.62-25.1 60.6-24.95 60.5-24.7L60.5-24.7 52.65-0.95Q52.45-0.3 51.82-0.1 51.2 0.1 50.45 0.1L50.45 0.1ZM76.34 0.3L76.34 0.3Q70.59 0.3 67.52-2.7 64.44-5.7 64.44-12.95L64.44-12.95Q64.44-17.3 65.79-20.3 67.14-23.3 69.77-24.88 72.39-26.45 76.14-26.45L76.14-26.45Q79.54-26.45 81.82-24.98 84.09-23.5 85.22-20.6 86.34-17.7 86.34-13.5L86.34-13.5Q86.34-13.05 86.09-12.55 85.84-12.05 85.44-11.7 85.04-11.35 84.59-11.35L84.59-11.35 68.84-11.35Q68.94-7.2 70.79-5.25 72.64-3.3 76.44-3.3L76.44-3.3Q78.84-3.3 80.52-3.85 82.19-4.4 83.17-4.95 84.14-5.5 84.39-5.5L84.39-5.5Q84.74-5.5 85.02-5.08 85.29-4.65 85.49-4.1 85.69-3.55 85.69-3.15L85.69-3.15Q85.69-2.7 84.97-2.13 84.24-1.55 82.97-0.98 81.69-0.4 79.99-0.05 78.29 0.3 76.34 0.3ZM68.84-14.95L68.84-14.95 82.04-14.95Q82.04-18.9 80.39-20.88 78.74-22.85 75.69-22.85L75.69-22.85Q73.49-22.85 71.99-21.88 70.49-20.9 69.69-19.15 68.89-17.4 68.84-14.95ZM107.59 0.3L107.59 0.3Q99.39 0.3 95.44-4.03 91.49-8.35 91.49-17.5L91.49-17.5Q91.49-26.45 95.59-30.88 99.69-35.3 107.69-35.3L107.69-35.3Q109.39-35.3 110.99-35.05 112.59-34.8 113.89-34.4 115.19-34 116.04-33.5L116.04-33.5Q116.59-33.15 116.92-32.83 117.24-32.5 117.24-32.2L117.24-32.2Q117.24-31.9 117.12-31.48 116.99-31.05 116.77-30.63 116.54-30.2 116.27-29.93 115.99-29.65 115.69-29.65L115.69-29.65Q115.29-29.65 114.32-30.13 113.34-30.6 111.74-31.05 110.14-31.5 107.79-31.5L107.79-31.5Q103.79-31.5 101.19-30.05 98.59-28.6 97.32-25.5 96.04-22.4 96.04-17.45L96.04-17.45Q96.04-12.65 97.29-9.58 98.54-6.5 101.12-5 103.69-3.5 107.59-3.5L107.59-3.5Q109.54-3.5 111.07-3.85 112.59-4.2 113.72-4.63 114.84-5.05 115.54-5.4 116.24-5.75 116.49-5.75L116.49-5.75Q116.79-5.75 117.07-5.45 117.34-5.15 117.54-4.75 117.74-4.35 117.84-3.95 117.94-3.55 117.94-3.35L117.94-3.35Q117.94-2.9 117.52-2.48 117.09-2.05 116.34-1.65L116.34-1.65Q115.44-1.15 114.12-0.7 112.79-0.25 111.14 0.03 109.49 0.3 107.59 0.3ZM133.94 0.3L133.94 0.3Q128.29 0.3 125.31-3.1 122.34-6.5 122.34-12.95L122.34-12.95Q122.34-19.45 125.34-22.95 128.34-26.45 133.94-26.45L133.94-26.45Q139.44-26.45 142.36-22.98 145.29-19.5 145.29-12.95L145.29-12.95Q145.29-6.45 142.41-3.08 139.54 0.3 133.94 0.3ZM133.79-3.3L133.79-3.3Q137.44-3.3 139.16-5.68 140.89-8.05 140.89-13.05L140.89-13.05Q140.89-18.05 139.16-20.45 137.44-22.85 133.79-22.85L133.79-22.85Q130.14-22.85 128.44-20.48 126.74-18.1 126.74-13.05L126.74-13.05Q126.74-8.05 128.44-5.68 130.14-3.3 133.79-3.3ZM160.24 0.3L160.24 0.3Q157.24 0.3 155.11-1.23 152.99-2.75 151.89-5.7 150.79-8.65 150.79-12.9L150.79-12.9Q150.79-16.85 151.91-19.9 153.04-22.95 155.14-24.7 157.24-26.45 160.14-26.45L160.14-26.45Q162.14-26.45 164.11-25.8 166.09-25.15 167.49-24.1L167.49-24.1 167.49-36.5Q167.49-37.05 167.99-37.33 168.49-37.6 169.59-37.6L169.59-37.6 169.79-37.6Q170.84-37.6 171.31-37.33 171.79-37.05 171.79-36.5L171.79-36.5 171.79-7.5Q171.79-5.45 171.91-4.15 172.04-2.85 172.16-2.13 172.29-1.4 172.29-1.05L172.29-1.05Q172.29-0.8 171.99-0.6 171.69-0.4 171.24-0.28 170.79-0.15 170.29-0.08 169.79 0 169.39 0L169.39 0Q168.94 0 168.69-0.33 168.44-0.65 168.24-1.43 168.04-2.2 167.79-3.45L167.79-3.45Q166.79-2.3 165.51-1.45 164.24-0.6 162.89-0.15 161.54 0.3 160.24 0.3ZM161.54-3.4L161.54-3.4Q163.14-3.4 164.76-4.33 166.39-5.25 167.49-6.85L167.49-6.85 167.49-20.05Q165.99-21.4 164.29-22.1 162.59-22.8 160.99-22.8L160.99-22.8Q158.24-22.8 156.71-20.23 155.19-17.65 155.19-12.9L155.19-12.9Q155.19-7.95 156.91-5.68 158.64-3.4 161.54-3.4ZM190.93 0.3L190.93 0.3Q185.18 0.3 182.11-2.7 179.03-5.7 179.03-12.95L179.03-12.95Q179.03-17.3 180.38-20.3 181.73-23.3 184.36-24.88 186.98-26.45 190.73-26.45L190.73-26.45Q194.13-26.45 196.41-24.98 198.68-23.5 199.81-20.6 200.93-17.7 200.93-13.5L200.93-13.5Q200.93-13.05 200.68-12.55 200.43-12.05 200.03-11.7 199.63-11.35 199.18-11.35L199.18-11.35 183.43-11.35Q183.53-7.2 185.38-5.25 187.23-3.3 191.03-3.3L191.03-3.3Q193.43-3.3 195.11-3.85 196.78-4.4 197.76-4.95 198.73-5.5 198.98-5.5L198.98-5.5Q199.33-5.5 199.61-5.08 199.88-4.65 200.08-4.1 200.28-3.55 200.28-3.15L200.28-3.15Q200.28-2.7 199.56-2.13 198.83-1.55 197.56-0.98 196.28-0.4 194.58-0.05 192.88 0.3 190.93 0.3ZM183.43-14.95L183.43-14.95 196.63-14.95Q196.63-18.9 194.98-20.88 193.33-22.85 190.28-22.85L190.28-22.85Q188.08-22.85 186.58-21.88 185.08-20.9 184.28-19.15 183.48-17.4 183.43-14.95ZM213.13 0.45L213.13 0.45Q211.43 0.45 209.98 0.13 208.53-0.2 207.46-0.7 206.38-1.2 205.78-1.73 205.18-2.25 205.18-2.7L205.18-2.7Q205.18-3 205.48-3.6 205.78-4.2 206.18-4.7 206.58-5.2 206.93-5.2L206.93-5.2Q207.13-5.2 207.83-4.7 208.53-4.2 209.81-3.7 211.08-3.2 212.83-3.2L212.83-3.2Q215.23-3.2 216.48-4.15 217.73-5.1 217.73-6.9L217.73-6.9Q217.73-8.25 217.08-9.08 216.43-9.9 215.31-10.45 214.18-11 212.73-11.45L212.73-11.45Q211.43-11.9 210.18-12.45 208.93-13 207.93-13.85 206.93-14.7 206.36-16 205.78-17.3 205.78-19.25L205.78-19.25Q205.78-21.35 206.86-23 207.93-24.65 209.81-25.58 211.68-26.5 214.08-26.5L214.08-26.5Q215.38-26.5 216.56-26.33 217.73-26.15 218.66-25.85 219.58-25.55 220.13-25.15 220.68-24.75 220.68-24.35L220.68-24.35Q220.68-23.95 220.41-23.3 220.13-22.65 219.78-22.15 219.43-21.65 219.08-21.65L219.08-21.65Q218.88-21.65 217.73-22.3 216.58-22.95 214.53-22.95L214.53-22.95Q212.68-22.95 211.38-22.08 210.08-21.2 210.08-19.6L210.08-19.6Q210.08-18.65 210.43-18 210.78-17.35 211.63-16.82 212.48-16.3 213.98-15.8L213.98-15.8Q215.68-15.25 217.13-14.55 218.58-13.85 219.68-12.88 220.78-11.9 221.38-10.55 221.98-9.2 221.98-7.35L221.98-7.35Q221.98-5.1 220.81-3.35 219.63-1.6 217.63-0.58 215.63 0.45 213.13 0.45Z" fill="white"></path></g></svg></g></svg></g></svg></g></svg></g><g><svg viewBox="0 0 94.08026576025848 96.00027118393723" height="96.00027118393723" width="94.08026576025848"><g><svg xmlns="http://www.w3.org/2000/svg" xmlns:xlink="http://www.w3.org/1999/xlink" version="1.1" x="0" y="0" viewBox="0 0 98 100" enable-background="new 0 0 100 100" xml:space="preserve" height="96.00027118393723" width="94.08026576025848" class="icon-icon-0" data-fill-palette-color="accent" id="SvgjsSvg6634"><g fill="black"><circle cx="49.494" cy="6.603" r="2.1" fill="black"></circle><path d="M18.267 34.851L24.39 27.386A1.474 1.474 0 1 0 22.11 25.514L15.138 34.013A1.475 1.475 0 0 0 15.236 35.992L22.829 43.583C23.117 43.872 23.494 44.016 23.871 44.016A1.475 1.475 0 0 0 24.914 41.497z" fill="black"></path><path d="M44.093 32.998L36.5 25.406A1.475 1.475 0 1 0 34.414 27.493L41.061 34.139 34.938 41.604A1.477 1.477 0 0 0 37.221 43.475L44.191 34.976A1.475 1.475 0 0 0 44.093 32.998" fill="black"></path><path d="M88.568 0H9.432C4.491 0 0 4.02 0 8.96V64.568C0 69.51 4.491 74 9.432 74H40.711C40.87 76 41.022 82.268 40.388 84.369 39.225 86.098 26.898 89.734 16.224 92.223 15.56 92.379 15 92.854 15 93.537V98.529C15 99.342 15.835 100 16.647 100H81.354C82.166 100 83 99.342 83 98.529V93.537C83 92.853 82.441 92.26 81.775 92.103 71.043 89.617 58.693 86.095 57.573 84.478 56.896 82.277 56.925 76 57.039 74H88.568C93.508 74 98 69.51 98 64.568V8.96C98 4.02 93.508 0 88.568 0M80 94.703V97H18V94.702C29 92.064 42.097 88.581 43.095 85.34 43.963 82.512 43.796 76 43.657 74H54.095C53.991 76 53.907 82.514 54.777 85.343 55.773 88.583 69 92.064 80 94.703M95 64.98C95 68.306 91.305 71 87.98 71H9.02A6.02 6.02 0 0 1 3 64.98V9.019A6.02 6.02 0 0 1 9.02 3H87.98C91.305 3 95 5.695 95 9.019z" fill="black"></path><path d="M88.529 12H9.471C8.659 12 8 12.659 8 13.471V57.529A1.47 1.47 0 0 0 9.471 59H88.529A1.47 1.47 0 0 0 90 57.529V13.471A1.47 1.47 0 0 0 88.529 12M11 15H48V56H11zM87 56H51V15H87z" fill="black"></path><path d="M54.5 36H83.5A1.5 1.5 0 0 0 85 34.5V18.5A1.5 1.5 0 0 0 83.5 17H54.5A1.5 1.5 0 0 0 53 18.5V34.5A1.5 1.5 0 0 0 54.5 36M56 20H82V33H56z" fill="black"></path><path d="M83 39H55A1.5 1.5 0 1 0 55 42H83A1.5 1.5 0 1 0 83 39" fill="black"></path><path d="M83 45H55A1.5 1.5 0 1 0 55 48H83A1.5 1.5 0 1 0 83 45" fill="black"></path><path d="M83 51H55A1.5 1.5 0 0 0 55 54H83A1.5 1.5 0 0 0 83 51" fill="black"></path></g></svg></g></svg></g></svg></g><defs><mask></mask></defs></svg><rect width="395.52" height="75.03969467191294" fill="black" stroke="none" visibility="hidden"></rect></g></mask><linearGradient x1="0.054" x2="0.941" y1="0.5" y2="0.5" id="36110a6f-f1ae-4183-826c-7c13f2b3690c"><stop stop-color="#eaa79c" offset="0"></stop><stop stop-color="#f2e8cb" offset="0.498"></stop><stop stop-color="#eaa79c" offset="1"></stop></linearGradient><rect width="395.52" height="75.03969467191294" fill="url(#36110a6f-f1ae-4183-826c-7c13f2b3690c)" mask="url(#9b91c8bc-087d-4a74-853c-7c4cda14f689)" data-fill-palette-color="primary"></rect><mask id="4e0a0732-0026-43e5-8dc0-f684cb09d567"><g id="SvgjsG6659"><svg viewBox="0 0 395.52 75.03969467191294" height="75.03969467191294" width="395.52"><g><svg viewBox="0 0 505.999223806582 96.00027118393723" height="75.03969467191294" width="395.52"><g transform="matrix(1,0,0,1,110.47922380658204,13.267765409646898)"><svg viewBox="0 0 395.52 69.46474036464343" height="69.46474036464343" width="395.52"><g id="SvgjsG6658"><svg viewBox="0 0 395.52 69.46474036464343" height="69.46474036464343" width="395.52" id="SvgjsSvg6657"><g><svg viewBox="0 0 395.52 69.46474036464343" height="69.46474036464343" width="395.52"><g transform="matrix(1,0,0,1,0,0)"><svg width="395.52" viewBox="4.85 -37.6 217.13 38.050000000000004" height="69.46474036464343" data-palette-color="url(#36110a6f-f1ae-4183-826c-7c13f2b3690c)"><g class="wordmark-text-0" data-fill-palette-color="primary" id="SvgjsG6656"></g></svg></g></svg></g></svg></g></svg></g><g><svg viewBox="0 0 94.08026576025848 96.00027118393723" height="96.00027118393723" width="94.08026576025848"><g><svg xmlns="http://www.w3.org/2000/svg" xmlns:xlink="http://www.w3.org/1999/xlink" version="1.1" x="0" y="0" viewBox="0 0 98 100" enable-background="new 0 0 100 100" xml:space="preserve" height="96.00027118393723" width="94.08026576025848" class="icon-icon-0" data-fill-palette-color="accent" id="SvgjsSvg6655"><g fill="white"><circle cx="49.494" cy="6.603" r="2.1" fill="white"></circle><path d="M18.267 34.851L24.39 27.386A1.474 1.474 0 1 0 22.11 25.514L15.138 34.013A1.475 1.475 0 0 0 15.236 35.992L22.829 43.583C23.117 43.872 23.494 44.016 23.871 44.016A1.475 1.475 0 0 0 24.914 41.497z" fill="white"></path><path d="M44.093 32.998L36.5 25.406A1.475 1.475 0 1 0 34.414 27.493L41.061 34.139 34.938 41.604A1.477 1.477 0 0 0 37.221 43.475L44.191 34.976A1.475 1.475 0 0 0 44.093 32.998" fill="white"></path><path d="M88.568 0H9.432C4.491 0 0 4.02 0 8.96V64.568C0 69.51 4.491 74 9.432 74H40.711C40.87 76 41.022 82.268 40.388 84.369 39.225 86.098 26.898 89.734 16.224 92.223 15.56 92.379 15 92.854 15 93.537V98.529C15 99.342 15.835 100 16.647 100H81.354C82.166 100 83 99.342 83 98.529V93.537C83 92.853 82.441 92.26 81.775 92.103 71.043 89.617 58.693 86.095 57.573 84.478 56.896 82.277 56.925 76 57.039 74H88.568C93.508 74 98 69.51 98 64.568V8.96C98 4.02 93.508 0 88.568 0M80 94.703V97H18V94.702C29 92.064 42.097 88.581 43.095 85.34 43.963 82.512 43.796 76 43.657 74H54.095C53.991 76 53.907 82.514 54.777 85.343 55.773 88.583 69 92.064 80 94.703M95 64.98C95 68.306 91.305 71 87.98 71H9.02A6.02 6.02 0 0 1 3 64.98V9.019A6.02 6.02 0 0 1 9.02 3H87.98C91.305 3 95 5.695 95 9.019z" fill="white"></path><path d="M88.529 12H9.471C8.659 12 8 12.659 8 13.471V57.529A1.47 1.47 0 0 0 9.471 59H88.529A1.47 1.47 0 0 0 90 57.529V13.471A1.47 1.47 0 0 0 88.529 12M11 15H48V56H11zM87 56H51V15H87z" fill="white"></path><path d="M54.5 36H83.5A1.5 1.5 0 0 0 85 34.5V18.5A1.5 1.5 0 0 0 83.5 17H54.5A1.5 1.5 0 0 0 53 18.5V34.5A1.5 1.5 0 0 0 54.5 36M56 20H82V33H56z" fill="white"></path><path d="M83 39H55A1.5 1.5 0 1 0 55 42H83A1.5 1.5 0 1 0 83 39" fill="white"></path><path d="M83 45H55A1.5 1.5 0 1 0 55 48H83A1.5 1.5 0 1 0 83 45" fill="white"></path><path d="M83 51H55A1.5 1.5 0 0 0 55 54H83A1.5 1.5 0 0 0 83 51" fill="white"></path></g></svg></g></svg></g></svg></g><defs><mask></mask></defs><mask><g id="SvgjsG6654"><svg viewBox="0 0 395.52 75.03969467191294" height="75.03969467191294" width="395.52"><g><svg viewBox="0 0 505.999223806582 96.00027118393723" height="75.03969467191294" width="395.52"><g transform="matrix(1,0,0,1,110.47922380658204,13.267765409646898)"><svg viewBox="0 0 395.52 69.46474036464343" height="69.46474036464343" width="395.52"><g id="SvgjsG6653"><svg viewBox="0 0 395.52 69.46474036464343" height="69.46474036464343" width="395.52" id="SvgjsSvg6652"><g><svg viewBox="0 0 395.52 69.46474036464343" height="69.46474036464343" width="395.52"><g transform="matrix(1,0,0,1,0,0)"><svg width="395.52" viewBox="4.85 -37.6 217.13 38.050000000000004" height="69.46474036464343" data-palette-color="url(#36110a6f-f1ae-4183-826c-7c13f2b3690c)"><g class="wordmark-text-0" data-fill-palette-color="primary" id="SvgjsG6651"><path d="M23.05 0L6.4 0Q4.85 0 4.85-1.5L4.85-1.5 4.85-34Q4.85-34.55 5.33-34.83 5.8-35.1 6.9-35.1L6.9-35.1 7.3-35.1Q8.45-35.1 8.9-34.83 9.35-34.55 9.35-34L9.35-34 9.35-3.8 23.05-3.8Q24.05-3.8 24.05-2.3L24.05-2.3 24.05-1.5Q24.05 0 23.05 0L23.05 0ZM31.05 0.1L30.65 0.1Q29.55 0.1 29.12-0.2 28.7-0.5 28.7-1L28.7-1 28.7-25.15Q28.7-25.7 29.12-25.98 29.55-26.25 30.65-26.25L30.65-26.25 31.05-26.25Q32.15-26.25 32.57-25.98 33-25.7 33-25.15L33-25.15 33-1Q33-0.5 32.57-0.2 32.15 0.1 31.05 0.1L31.05 0.1ZM30.85-29.75L30.85-29.75Q29.65-29.75 29.15-30.05 28.65-30.35 28.65-30.85L28.65-30.85 28.65-33.85Q28.65-34.35 29.15-34.65 29.65-34.95 30.85-34.95L30.85-34.95Q32.05-34.95 32.55-34.68 33.05-34.4 33.05-33.85L33.05-33.85 33.05-30.85Q33.05-30.35 32.55-30.05 32.05-29.75 30.85-29.75ZM50.45 0.1L48.7 0.1Q47.95 0.1 47.35-0.1 46.75-0.3 46.5-0.95L46.5-0.95 38.65-24.75Q38.6-24.85 38.55-25.05 38.5-25.25 38.5-25.4L38.5-25.4Q38.5-25.8 39.02-26.03 39.55-26.25 40.65-26.25L40.65-26.25 41.1-26.25Q41.85-26.25 42.4-26.08 42.95-25.9 43.1-25.45L43.1-25.45 49.65-3.25 49.85-3.25 56.4-25.45Q56.55-25.9 57.1-26.08 57.65-26.25 58.45-26.25L58.45-26.25 58.8-26.25Q59.8-26.25 60.22-26.03 60.65-25.8 60.65-25.4L60.65-25.4Q60.65-25.25 60.62-25.1 60.6-24.95 60.5-24.7L60.5-24.7 52.65-0.95Q52.45-0.3 51.82-0.1 51.2 0.1 50.45 0.1L50.45 0.1ZM76.34 0.3L76.34 0.3Q70.59 0.3 67.52-2.7 64.44-5.7 64.44-12.95L64.44-12.95Q64.44-17.3 65.79-20.3 67.14-23.3 69.77-24.88 72.39-26.45 76.14-26.45L76.14-26.45Q79.54-26.45 81.82-24.98 84.09-23.5 85.22-20.6 86.34-17.7 86.34-13.5L86.34-13.5Q86.34-13.05 86.09-12.55 85.84-12.05 85.44-11.7 85.04-11.35 84.59-11.35L84.59-11.35 68.84-11.35Q68.94-7.2 70.79-5.25 72.64-3.3 76.44-3.3L76.44-3.3Q78.84-3.3 80.52-3.85 82.19-4.4 83.17-4.95 84.14-5.5 84.39-5.5L84.39-5.5Q84.74-5.5 85.02-5.08 85.29-4.65 85.49-4.1 85.69-3.55 85.69-3.15L85.69-3.15Q85.69-2.7 84.97-2.13 84.24-1.55 82.97-0.98 81.69-0.4 79.99-0.05 78.29 0.3 76.34 0.3ZM68.84-14.95L68.84-14.95 82.04-14.95Q82.04-18.9 80.39-20.88 78.74-22.85 75.69-22.85L75.69-22.85Q73.49-22.85 71.99-21.88 70.49-20.9 69.69-19.15 68.89-17.4 68.84-14.95ZM107.59 0.3L107.59 0.3Q99.39 0.3 95.44-4.03 91.49-8.35 91.49-17.5L91.49-17.5Q91.49-26.45 95.59-30.88 99.69-35.3 107.69-35.3L107.69-35.3Q109.39-35.3 110.99-35.05 112.59-34.8 113.89-34.4 115.19-34 116.04-33.5L116.04-33.5Q116.59-33.15 116.92-32.83 117.24-32.5 117.24-32.2L117.24-32.2Q117.24-31.9 117.12-31.48 116.99-31.05 116.77-30.63 116.54-30.2 116.27-29.93 115.99-29.65 115.69-29.65L115.69-29.65Q115.29-29.65 114.32-30.13 113.34-30.6 111.74-31.05 110.14-31.5 107.79-31.5L107.79-31.5Q103.79-31.5 101.19-30.05 98.59-28.6 97.32-25.5 96.04-22.4 96.04-17.45L96.04-17.45Q96.04-12.65 97.29-9.58 98.54-6.5 101.12-5 103.69-3.5 107.59-3.5L107.59-3.5Q109.54-3.5 111.07-3.85 112.59-4.2 113.72-4.63 114.84-5.05 115.54-5.4 116.24-5.75 116.49-5.75L116.49-5.75Q116.79-5.75 117.07-5.45 117.34-5.15 117.54-4.75 117.74-4.35 117.84-3.95 117.94-3.55 117.94-3.35L117.94-3.35Q117.94-2.9 117.52-2.48 117.09-2.05 116.34-1.65L116.34-1.65Q115.44-1.15 114.12-0.7 112.79-0.25 111.14 0.03 109.49 0.3 107.59 0.3ZM133.94 0.3L133.94 0.3Q128.29 0.3 125.31-3.1 122.34-6.5 122.34-12.95L122.34-12.95Q122.34-19.45 125.34-22.95 128.34-26.45 133.94-26.45L133.94-26.45Q139.44-26.45 142.36-22.98 145.29-19.5 145.29-12.95L145.29-12.95Q145.29-6.45 142.41-3.08 139.54 0.3 133.94 0.3ZM133.79-3.3L133.79-3.3Q137.44-3.3 139.16-5.68 140.89-8.05 140.89-13.05L140.89-13.05Q140.89-18.05 139.16-20.45 137.44-22.85 133.79-22.85L133.79-22.85Q130.14-22.85 128.44-20.48 126.74-18.1 126.74-13.05L126.74-13.05Q126.74-8.05 128.44-5.68 130.14-3.3 133.79-3.3ZM160.24 0.3L160.24 0.3Q157.24 0.3 155.11-1.23 152.99-2.75 151.89-5.7 150.79-8.65 150.79-12.9L150.79-12.9Q150.79-16.85 151.91-19.9 153.04-22.95 155.14-24.7 157.24-26.45 160.14-26.45L160.14-26.45Q162.14-26.45 164.11-25.8 166.09-25.15 167.49-24.1L167.49-24.1 167.49-36.5Q167.49-37.05 167.99-37.33 168.49-37.6 169.59-37.6L169.59-37.6 169.79-37.6Q170.84-37.6 171.31-37.33 171.79-37.05 171.79-36.5L171.79-36.5 171.79-7.5Q171.79-5.45 171.91-4.15 172.04-2.85 172.16-2.13 172.29-1.4 172.29-1.05L172.29-1.05Q172.29-0.8 171.99-0.6 171.69-0.4 171.24-0.28 170.79-0.15 170.29-0.08 169.79 0 169.39 0L169.39 0Q168.94 0 168.69-0.33 168.44-0.65 168.24-1.43 168.04-2.2 167.79-3.45L167.79-3.45Q166.79-2.3 165.51-1.45 164.24-0.6 162.89-0.15 161.54 0.3 160.24 0.3ZM161.54-3.4L161.54-3.4Q163.14-3.4 164.76-4.33 166.39-5.25 167.49-6.85L167.49-6.85 167.49-20.05Q165.99-21.4 164.29-22.1 162.59-22.8 160.99-22.8L160.99-22.8Q158.24-22.8 156.71-20.23 155.19-17.65 155.19-12.9L155.19-12.9Q155.19-7.95 156.91-5.68 158.64-3.4 161.54-3.4ZM190.93 0.3L190.93 0.3Q185.18 0.3 182.11-2.7 179.03-5.7 179.03-12.95L179.03-12.95Q179.03-17.3 180.38-20.3 181.73-23.3 184.36-24.88 186.98-26.45 190.73-26.45L190.73-26.45Q194.13-26.45 196.41-24.98 198.68-23.5 199.81-20.6 200.93-17.7 200.93-13.5L200.93-13.5Q200.93-13.05 200.68-12.55 200.43-12.05 200.03-11.7 199.63-11.35 199.18-11.35L199.18-11.35 183.43-11.35Q183.53-7.2 185.38-5.25 187.23-3.3 191.03-3.3L191.03-3.3Q193.43-3.3 195.11-3.85 196.78-4.4 197.76-4.95 198.73-5.5 198.98-5.5L198.98-5.5Q199.33-5.5 199.61-5.08 199.88-4.65 200.08-4.1 200.28-3.55 200.28-3.15L200.28-3.15Q200.28-2.7 199.56-2.13 198.83-1.55 197.56-0.98 196.28-0.4 194.58-0.05 192.88 0.3 190.93 0.3ZM183.43-14.95L183.43-14.95 196.63-14.95Q196.63-18.9 194.98-20.88 193.33-22.85 190.28-22.85L190.28-22.85Q188.08-22.85 186.58-21.88 185.08-20.9 184.28-19.15 183.48-17.4 183.43-14.95ZM213.13 0.45L213.13 0.45Q211.43 0.45 209.98 0.13 208.53-0.2 207.46-0.7 206.38-1.2 205.78-1.73 205.18-2.25 205.18-2.7L205.18-2.7Q205.18-3 205.48-3.6 205.78-4.2 206.18-4.7 206.58-5.2 206.93-5.2L206.93-5.2Q207.13-5.2 207.83-4.7 208.53-4.2 209.81-3.7 211.08-3.2 212.83-3.2L212.83-3.2Q215.23-3.2 216.48-4.15 217.73-5.1 217.73-6.9L217.73-6.9Q217.73-8.25 217.08-9.08 216.43-9.9 215.31-10.45 214.18-11 212.73-11.45L212.73-11.45Q211.43-11.9 210.18-12.45 208.93-13 207.93-13.85 206.93-14.7 206.36-16 205.78-17.3 205.78-19.25L205.78-19.25Q205.78-21.35 206.86-23 207.93-24.65 209.81-25.58 211.68-26.5 214.08-26.5L214.08-26.5Q215.38-26.5 216.56-26.33 217.73-26.15 218.66-25.85 219.58-25.55 220.13-25.15 220.68-24.75 220.68-24.35L220.68-24.35Q220.68-23.95 220.41-23.3 220.13-22.65 219.78-22.15 219.43-21.65 219.08-21.65L219.08-21.65Q218.88-21.65 217.73-22.3 216.58-22.95 214.53-22.95L214.53-22.95Q212.68-22.95 211.38-22.08 210.08-21.2 210.08-19.6L210.08-19.6Q210.08-18.65 210.43-18 210.78-17.35 211.63-16.82 212.48-16.3 213.98-15.8L213.98-15.8Q215.68-15.25 217.13-14.55 218.58-13.85 219.68-12.88 220.78-11.9 221.38-10.55 221.98-9.2 221.98-7.35L221.98-7.35Q221.98-5.1 220.81-3.35 219.63-1.6 217.63-0.58 215.63 0.45 213.13 0.45Z" fill="black"></path></g></svg></g></svg></g></svg></g></svg></g><g><svg viewBox="0 0 94.08026576025848 96.00027118393723" height="96.00027118393723" width="94.08026576025848"><g><svg xmlns="http://www.w3.org/2000/svg" xmlns:xlink="http://www.w3.org/1999/xlink" version="1.1" x="0" y="0" viewBox="0 0 98 100" enable-background="new 0 0 100 100" xml:space="preserve" height="96.00027118393723" width="94.08026576025848" class="icon-icon-0" data-fill-palette-color="accent" id="SvgjsSvg6650"><g fill="black"><circle cx="49.494" cy="6.603" r="2.1" fill="black"></circle><path d="M18.267 34.851L24.39 27.386A1.474 1.474 0 1 0 22.11 25.514L15.138 34.013A1.475 1.475 0 0 0 15.236 35.992L22.829 43.583C23.117 43.872 23.494 44.016 23.871 44.016A1.475 1.475 0 0 0 24.914 41.497z" fill="black"></path><path d="M44.093 32.998L36.5 25.406A1.475 1.475 0 1 0 34.414 27.493L41.061 34.139 34.938 41.604A1.477 1.477 0 0 0 37.221 43.475L44.191 34.976A1.475 1.475 0 0 0 44.093 32.998" fill="black"></path><path d="M88.568 0H9.432C4.491 0 0 4.02 0 8.96V64.568C0 69.51 4.491 74 9.432 74H40.711C40.87 76 41.022 82.268 40.388 84.369 39.225 86.098 26.898 89.734 16.224 92.223 15.56 92.379 15 92.854 15 93.537V98.529C15 99.342 15.835 100 16.647 100H81.354C82.166 100 83 99.342 83 98.529V93.537C83 92.853 82.441 92.26 81.775 92.103 71.043 89.617 58.693 86.095 57.573 84.478 56.896 82.277 56.925 76 57.039 74H88.568C93.508 74 98 69.51 98 64.568V8.96C98 4.02 93.508 0 88.568 0M80 94.703V97H18V94.702C29 92.064 42.097 88.581 43.095 85.34 43.963 82.512 43.796 76 43.657 74H54.095C53.991 76 53.907 82.514 54.777 85.343 55.773 88.583 69 92.064 80 94.703M95 64.98C95 68.306 91.305 71 87.98 71H9.02A6.02 6.02 0 0 1 3 64.98V9.019A6.02 6.02 0 0 1 9.02 3H87.98C91.305 3 95 5.695 95 9.019z" fill="black"></path><path d="M88.529 12H9.471C8.659 12 8 12.659 8 13.471V57.529A1.47 1.47 0 0 0 9.471 59H88.529A1.47 1.47 0 0 0 90 57.529V13.471A1.47 1.47 0 0 0 88.529 12M11 15H48V56H11zM87 56H51V15H87z" fill="black"></path><path d="M54.5 36H83.5A1.5 1.5 0 0 0 85 34.5V18.5A1.5 1.5 0 0 0 83.5 17H54.5A1.5 1.5 0 0 0 53 18.5V34.5A1.5 1.5 0 0 0 54.5 36M56 20H82V33H56z" fill="black"></path><path d="M83 39H55A1.5 1.5 0 1 0 55 42H83A1.5 1.5 0 1 0 83 39" fill="black"></path><path d="M83 45H55A1.5 1.5 0 1 0 55 48H83A1.5 1.5 0 1 0 83 45" fill="black"></path><path d="M83 51H55A1.5 1.5 0 0 0 55 54H83A1.5 1.5 0 0 0 83 51" fill="black"></path></g></svg></g></svg></g></svg></g><defs><mask></mask></defs></svg><rect width="395.52" height="75.03969467191294" fill="black" stroke="none" visibility="hidden"></rect></g></mask></svg><rect width="395.52" height="75.03969467191294" fill="black" stroke="none" visibility="hidden"></rect></g></mask><linearGradient x1="0" x2="1" y1="0.5" y2="0.5" id="d0826942-5150-46dc-a2d9-dfedd1b6c733"><stop stop-color="#f00b51" offset="0"></stop><stop stop-color="#730062" offset="1"></stop></linearGradient><rect width="395.52" height="75.03969467191294" fill="url(#d0826942-5150-46dc-a2d9-dfedd1b6c733)" mask="url(#4e0a0732-0026-43e5-8dc0-f684cb09d567)" data-fill-palette-color="accent"></rect></svg><rect width="395.52" height="75.03969467191294" fill="none" stroke="none" visibility="hidden"></rect></g></svg></g></svg>